<svg xmlns="http://www.w3.org/2000/svg" viewBox="0 0 500 104">
  <path d="M141.57 89a5 5 0 00-2.39-1.93c1.4-.35 11.24-13.47 12.43-14.66-1.08.09-5.59-.24-6.5.27-.51-.31-9.23 11.38-9.75 11.86a2.3 2.3 0 01-.93.72 8.31 8.31 0 01-2.72.23v-13.1h-5.8v31.23h5.8V89.89c1.45 0 3.47-.33 4.34 1.06l8.83 11.52a2.39 2.39 0 00.85.85 4 4 0 001.71.3h5zM188.65 81.12c8.88-.22 12.79 8.52 10.14 16.13-2.85 8.94-17.46 8.91-20.34 0-2.7-7.63 1.33-16.35 10.2-16.13zm0 18.72c4.25-.06 5.37-3.16 5.42-7.3s-1.17-7.28-5.42-7.34-5.43 3.22-5.48 7.34 1.2 7.25 5.48 7.3zM243.82 103.62V81.47h3.27a1.3 1.3 0 011.35 1l.35 1.64c3.13-4 9.74-4.24 11.41 1.18 2.1-4.69 9.38-5.55 12.74-1.94a9.08 9.08 0 012 6.19v14.1h-5.34V89.52c0-2.58-1.05-4.24-3.65-4.25a3.89 3.89 0 00-3.89 4.25v14.1h-5.35v-14.1c.34-5-5-5.4-7.55-2.11v16.21zM289.47 81.12c8.84-.26 12.82 8.57 10.14 16.13-2.84 8.94-17.46 8.9-20.33 0-2.73-7.57 1.37-16.39 10.19-16.13zm0 18.72c4.26-.06 5.37-3.16 5.42-7.3s-1.17-7.28-5.42-7.34-5.47 3.22-5.47 7.34 1.2 7.25 5.47 7.3zM304.23 103.62V81.47c4.44.08 4.63-.87 5 4 1.7-3.31 5.73-5.78 9.09-3.68-.15.4-.57 4.37-1 4.56a1.82 1.82 0 01-1.47 0 5.31 5.31 0 00-6.34 3.45v13.8zM329.88 81.12c5.65-.22 9.83 4.44 9.58 10 0 .78.07 1.6-.62 2a1.78 1.78 0 01-.61.09h-13.68c.12 6.78 6.39 8.16 11.17 5 1.66-1.16 2.64 1.19 3.55 2.13-4.13 4.6-12.54 5-16.89.6-6.3-6.77-2.97-20.13 7.5-19.82zM330 85c-3.21 0-4.85 2-5.33 5h10a4.57 4.57 0 00-4.67-5zM341.79 100.68c.07-4.3 6.45-4.3 6.54 0s-6.54 4.32-6.54 0zM359.22 103.62V72.41c3.53.15 12.85-.42 16 .58 7.89 1.68 8.58 12.22.7 14.51q6.44 1.44 6.44 6.94a8.34 8.34 0 01-3 6.57 12.92 12.92 0 01-8.4 2.61zm5.78-17.7c3.86-.12 10.82 1 10.67-4.51.21-5.82-6.72-4.31-10.67-4.51zm0 4v9.15h5.89c3.09.17 5.85-1.58 5.7-4.77.15-3.19-2.8-4.51-5.72-4.38zM395.79 81.12c5.66-.22 9.84 4.43 9.59 10-.05.78.08 1.6-.63 2a1.72 1.72 0 01-.6.09h-13.68c.09 5 3.81 7.6 8.29 6.31 1.6-.23 3.63-2.64 4.87-1.15l1.55 1.94c-4.12 4.6-12.53 5-16.88.6-6.3-6.79-3.01-20.05 7.49-19.79zm.11 3.88c-3.22 0-4.85 2-5.32 5h10a4.6 4.6 0 00-4.68-5zM427.73 85.79c-.71 1.21-1.93.37-2.92-.07-1.51-.79-4.18-1.08-5.57 0a2 2 0 00-.44 2.94c1.84 1.67 4.75 1.77 6.94 2.95 4.3 1.62 4.4 7.56 1.15 10.31-3.85 3.17-10.52 2.59-14.25-.64l1.23-2c1.32-1.9 3.11.35 4.71.73 1.34.45 3.61.45 4.76-.54 3-3.28-2.16-4.56-4.6-5.28-2.92-.84-5.63-2.84-5.45-6.24.07-7.61 11.25-8.56 15.64-4zM481.55 81.12c5.65-.22 9.84 4.43 9.58 10-.05.78.08 1.59-.62 2a1.78 1.78 0 01-.61.09h-13.68c0 5.91 5.28 8.11 9.93 5.64 2.93-1.89 3-.73 4.78 1.46-4.11 4.6-12.52 5-16.87.6-6.31-6.74-2.97-20.1 7.49-19.79zm.11 3.83c-3.22 0-4.86 2-5.33 5h10a4.6 4.6 0 00-4.67-4.95zM493.46 100.68c.07-4.3 6.45-4.3 6.54 0s-6.54 4.32-6.54 0z" fill="#189ada"/>
  <path d="M202.19 14.38c-6.4.44-9.27 4.33-10.92 7.06l-.43-3.59c-.35-2.14-1.16-2.88-3.4-2.9h-6.29V57H192V31.4c3.57-11.87 13.84-2.54 15-7.62l1.47-8.56a15.19 15.19 0 00-6.28-.84zM167.32 8c-5.45-5.39-12.91-8-20.88-8h-20.53v57h20.53c8 0 15.44-2.56 20.88-8 10.68-10.45 10.68-30.55 0-41zm-20.88 39.76h-9.09V9.24c4.44.17 12.35-.62 16.29 1.32 9.84 3.85 11.73 17 8.83 26.07-2.25 7.12-8.59 11.28-16.03 11.13zM238.08 44.93c-4.8 5.47-15.52 6-15-3.4V15h-10.89v26.53c0 4.3 1 8.4 3.68 11.56 5.74 6.8 17.24 5.48 23-.71.34 2.08.79 4.72 3.5 4.6h6.52V15h-10.81zM328 35.86c-4.37-4.1-11.63-3.76-16.06-7.49a3.23 3.23 0 01.76-4.73c3.21-2.28 8.55-.81 11.71 1 1.83.81 3.21.58 4.13-.94l2.46-3.89c-7.31-7.63-24.18-7.93-29.08 2.51-2.6 5.8-.32 13.07 5.62 15.51 4.05 2.23 9.41 2.34 12.82 5.39 2.56 3.5-1.8 6.94-5.47 6.51-5 .85-9.46-6.35-12.87-1.65l-2.47 4.11c7.05 6.4 20 7.57 27.34 1.45 4.96-4.19 6.28-13.31 1.11-17.78zM344.63 47.15c-5.95-5.52-14.11 2.76-8.65 8.66 6.02 5.4 14.11-2.69 8.65-8.66zM378 45.36c-3.48.79-5.42 4.25-9.69 3.72-10.8 0-11.76-15.85-7.18-22.83 2.22-3.27 7.11-4.1 10.69-3 2.57.52 4.7 3.69 7.25 2.15.82-.5 3.17-4.14 3.8-4.92-13.27-13.42-36.49-4-35.33 15.42-1 20.46 22.55 29.2 35.73 14.5-1.27-1.2-3.16-5.27-5.27-5.04zM421.28 20.14c-5.71-6-16-7.25-23.62-4.31-8.25 3.1-12.43 11.34-12.31 20.06-.24 16.81 14.2 25.49 29.37 20.18 13.78-5.07 15.97-25.92 6.56-35.93zM406.21 49c-7.66-.08-9.56-5.64-9.68-13 .12-7.38 2-13 9.68-13.12 7.6.1 9.43 5.76 9.55 13.12-.12 7.35-1.96 12.91-9.55 13zM490 23.61c-3.16-11.63-21.17-12.37-26.75-2.3-3.63-9.17-15-8.76-20.93-2l-.46-2.18a2.93 2.93 0 00-3-2.14h-6.52V57h10.85V26.63c2.62-3.39 8.4-5.26 11.49-1.95 1 1.16 1.54 3.07 1.54 5.69V57h10.89V30.37c-.18-4 2.64-7.52 6.72-7.4 4.55 0 6.26 2.86 6.27 7.4V57h10.86V30.37a21.54 21.54 0 00-.96-6.76zM281.79 43.63c-2.74 4.31-12 4.25-14.66 0-3.24-3.47-3.23-14 0-17.46 1.58-2.19 4-3.25 7.38-3.25 10.4-.73 12.27 14.54 7.28 20.71zM294.48 15h-6.38c-2.52-.22-3.27 2.88-3.4 4.34-10.88-10.91-31.63-3.58-30.41 15.88 0 13.31 6.82 20.48 18.69 20.48a14.29 14.29 0 0011.5-5.7h.1c.49 11.6-7.06 14.09-18.18 11.91-2.66-.38-3.1-1.47-5.19-1.11a2.43 2.43 0 00-1.85 1.63l-2.15 5.38c2.5 2.58 14.54 3.91 16.64 3.39 6.13 0 20.78-2.81 20.63-21.85z" fill="#183272"/>
  <path d="M47.7 69.61l-6.14 6.2a10.31 10.31 0 002.71 4.93l3.8 3.84 3.43-3.47-3.8-3.83a5.48 5.48 0 010-7.67zM72.76 46.55a5.32 5.32 0 013.8 1.59l3.8 3.86 3.44-3.47-3.8-3.85a10.09 10.09 0 00-4.89-2.74L69 48.14a5.31 5.31 0 013.76-1.59z" fill="#3253a4"/>
  <path d="M30.23 46.55A5.32 5.32 0 0134 48.14l-6.15-6.2A10.11 10.11 0 0023 44.68l-3.8 3.83L22.64 52l3.8-3.84a5.31 5.31 0 013.79-1.61zM51.5 68a5.29 5.29 0 00-3.8 1.59 5.34 5.34 0 017.59 0 5.46 5.46 0 010 7.67l-3.8 3.83 3.43 3.47 3.8-3.84a10.34 10.34 0 002.72-4.93l-6.15-6.2A5.29 5.29 0 0051.5 68z" fill="#d6411c"/>
  <path d="M26.44 55.81L22.64 52l-3.44 3.44 3.8 3.84A10.19 10.19 0 0027.89 62L34 55.81a5.32 5.32 0 01-7.56 0zM56.87 30.51a5.45 5.45 0 01-1.54 3.81l6.12-6.18a10.34 10.34 0 00-2.72-4.93l-3.79-3.83-3.44 3.46 3.8 3.84a5.41 5.41 0 011.57 3.83z" fill="#189ada"/>
  <path d="M51.29 35.91a5.34 5.34 0 01-3.59-1.56 5.48 5.48 0 010-7.67l3.8-3.84-3.43-3.46-3.8 3.83a10.26 10.26 0 00-2.71 4.94l6.14 6.2a5.34 5.34 0 003.59 1.56zM76.56 55.81a5.32 5.32 0 01-7.59 0L75.11 62A10.15 10.15 0 0080 59.28l3.8-3.84L80.36 52z" fill="#d50c6f"/>
  <path d="M87.23 52l-3.43 3.44 8.37 8.46a20.73 20.73 0 015.28 19.87 32.21 32.21 0 01-7.14 2.13 20.64 20.64 0 00-5.74-14.33L75.11 62a10.13 10.13 0 01-9.54-2.7L81.14 75a16.18 16.18 0 014.34 11.25 15.64 15.64 0 01-11.14-4.39L58.73 66.15a10.37 10.37 0 012.72 9.66l9.45 9.56c6.42 6.44 15.73 6.79 23.81 4.52A20.29 20.29 0 0163.31 93l-8.38-8.45L51.5 88l8.38 8.45a25.12 25.12 0 0035.72 0 25.7 25.7 0 000-36.06z" fill="#3253a4"/>
  <path d="M39.69 93A20.26 20.26 0 0120 98.37a32.64 32.64 0 01-2.12-7.21 20.31 20.31 0 0014.2-5.79l9.47-9.56a10.37 10.37 0 012.71-9.66L28.67 81.89a15.84 15.84 0 01-11.15 4.38A16 16 0 0121.86 75l15.6-15.75a10.65 10.65 0 00.88-1A10.13 10.13 0 0127.89 62l-9.46 9.56c-6.47 6.52-6.69 16.05-4.5 24-10.63-7-12.17-22.74-3.1-31.7l8.37-8.46-3.43-3.4-8.37 8.43C-8.38 76.24 2.82 104 25.26 104c12.74-.08 18.08-7.89 26.24-16l-3.43-3.46z" fill="#d6411c"/>
  <path d="M10.83 40.06a20.74 20.74 0 01-5.29-19.87 31.18 31.18 0 017.14-2.13 20.71 20.71 0 005.75 14.33l9.45 9.55a10.11 10.11 0 019.58 2.74l-15.6-15.75a16.16 16.16 0 01-4.33-11.26 15.65 15.65 0 0111.13 4.39l15.61 15.75a10.38 10.38 0 01-2.71-9.66l-9.47-9.56c-6.46-6.53-15.91-6.74-23.81-4.54 6.93-10.69 22.53-12.31 31.41-3.12l8.38 8.45 3.43-3.47-8.38-8.45C27.26-8.59-.12 3.08 0 25.49 0 38.29 7.73 43.7 15.77 52l3.43-3.47z" fill="#189ada"/>
  <path d="M63.31 10.92A20.27 20.27 0 0183 5.6a32.61 32.61 0 012.1 7.19 20.31 20.31 0 00-14.19 5.8l-9.45 9.55a10.4 10.4 0 01-2.72 9.67l15.6-15.75a15.84 15.84 0 0111.14-4.38 16 16 0 01-4.34 11.25l-15.6 15.75a10.1 10.1 0 019.57-2.74l9.46-9.55c6.46-6.52 6.67-16.06 4.5-24 10.62 7 12.16 22.74 3.09 31.7l-8.36 8.42L87.23 52l8.37-8.46a25.7 25.7 0 000-36.06 25.12 25.12 0 00-35.72 0l-8.38 8.43 3.44 3.47z" fill="#d50c6f"/>
  <path d="M57.85 65.36a7.4 7.4 0 00-.72-.53 10.2 10.2 0 00-11.23 0 8.86 8.86 0 00-.72.53l-.11.08a10.42 10.42 0 00-3.48 10.37l6.14-6.2a5.34 5.34 0 017.6 0l6.15 6.2a10.81 10.81 0 00.28-2.36 10.31 10.31 0 00-3-7.3 8.63 8.63 0 00-.77-.71zM51.5 81.11l-3.43 3.47 3.43 3.46 3.43-3.46-3.43-3.47zM37.46 44.68a10.11 10.11 0 00-9.58-2.74l6.12 6.2a5.49 5.49 0 010 7.67L27.89 62a10.1 10.1 0 009.57-2.73 10.65 10.65 0 00.88-1 10.42 10.42 0 00-.88-13.59zM22.64 51.98l-3.44-3.47-3.43 3.47 3.43 3.46 3.44-3.46z" fill="#2b1619"/>
  <path fill="#2b0448" d="M80.36 51.98l3.44 3.47 3.43-3.47-3.43-3.47-3.44 3.47zM67.39 52A5.4 5.4 0 0169 48.14l6.14-6.2a10.1 10.1 0 00-9.57 2.74 10.44 10.44 0 000 14.6A10.12 10.12 0 0075.11 62L69 55.81A5.38 5.38 0 0167.39 52zM58.73 37.81a10.33 10.33 0 003-7.3 11 11 0 00-.28-2.37l-6.12 6.18a5.35 5.35 0 01-3.8 1.58h-.21a5.34 5.34 0 01-3.59-1.56l-6.14-6.2a10.38 10.38 0 002.71 9.66 10.16 10.16 0 0014.46 0zM51.5 22.84l3.44-3.46-3.44-3.47-3.43 3.47 3.43 3.46z"/>
  <path d="M230 81.47a1.47 1.47 0 00-1.47 1s-4 15-4.08 15.6c-.15-.58-4.58-15.64-4.58-15.64a1.42 1.42 0 00-1.55-1h-1.87c-1 0-1.58.13-1.84 1 0 0-4.6 15-4.75 15.63-.1-.62-3.91-15.59-3.91-15.59a1.48 1.48 0 00-1.53-1h-4.23l7 22.15h4.08a1.19 1.19 0 001.17-1s4.57-14.9 4.66-15.33c.07.42 4.62 15.33 4.62 15.33.2.63.53 1 1 1H227l7-22.15zM432.55 81.47v0zM446.52 81.47v16c-2.84 3.18-8.8 3.52-8.64-1.95V81.47h-5.32v13.66a15.76 15.76 0 00.49 3.81c1.72 6.23 10 6.36 13.82 1.93l.37 1.77a1.32 1.32 0 001.36 1h3.26V81.47zM461.74 85.49c-.37-3.68-.41-4-2.19-4h-2.84v22.15h5.34V89.82a5.31 5.31 0 016.34-3.45 1.82 1.82 0 001.47 0c.41-.18.82-4.15 1-4.56-3.4-2.1-7.41.38-9.12 3.68zM174.35 94.49c0-3.59-.08-7.08-.51-8.37-1.72-6.2-10.08-6.34-13.83-1.93l-.37-1.74a1.3 1.3 0 00-1.35-1H155v22.15h5.33v-16c2.83-3.2 8.79-3.57 8.63 1.92v14.1h5.36v-9.13z" fill="#189ada"/>
</svg>
